<svg width="24" height="24" viewBox="0 0 32 32" fill="none" xmlns="http://www.w3.org/2000/svg">
<path d="M15.8571 1C18.4578 1 20.9519 2.0331 22.7908 3.87203C24.6298 5.71096 25.6629 8.20508 25.6629 10.8057C25.6629 21.7086 29.64 23.8571 30.7143 23.8571H1C2.09714 23.8571 6.05143 21.6857 6.05143 10.8057C6.05143 8.20508 7.08453 5.71096 8.92346 3.87203C10.7624 2.0331 13.2565 1 15.8571 1Z" stroke="#1E1E1E" stroke-width="2.28571" stroke-linecap="round" stroke-linejoin="round"/>
<path d="M12.4286 28.04C12.6261 28.7989 13.0699 29.4708 13.6904 29.9505C14.3109 30.4301 15.0729 30.6903 15.8571 30.6903C16.6413 30.6903 17.4034 30.4301 18.0239 29.9505C18.6443 29.4708 19.0881 28.7989 19.2857 28.04" stroke="#1E1E1E" stroke-width="2.28571" stroke-linecap="round" stroke-linejoin="round"/>
</svg>
