<svg width="15" height="15" viewBox="0 0 17 17" fill="none" xmlns="http://www.w3.org/2000/svg">
<path d="M2.14286 3.28571C1.83975 3.28571 1.54906 3.40612 1.33474 3.62045C1.12041 3.83478 1 4.12547 1 4.42857V14.7143C1 15.0174 1.12041 15.3081 1.33474 15.5224C1.54906 15.7367 1.83975 15.8571 2.14286 15.8571H14.7143C15.0174 15.8571 15.3081 15.7367 15.5224 15.5224C15.7367 15.3081 15.8571 15.0174 15.8571 14.7143V4.42857C15.8571 4.12547 15.7367 3.83478 15.5224 3.62045C15.3081 3.40612 15.0174 3.28571 14.7143 3.28571H12.4286" stroke="#1E1E1E" stroke-width="1.14286" stroke-linecap="round" stroke-linejoin="round"/>
<path d="M1 7.85714H15.8571" stroke="#1E1E1E" stroke-width="1.14286" stroke-linecap="round" stroke-linejoin="round"/>
<path d="M4.42857 1V5.57143" stroke="#1E1E1E" stroke-width="1.14286" stroke-linecap="round" stroke-linejoin="round"/>
<path d="M12.4286 1V5.57143" stroke="#1E1E1E" stroke-width="1.14286" stroke-linecap="round" stroke-linejoin="round"/>
<path d="M4.42857 3.28571H10.1429" stroke="#1E1E1E" stroke-width="1.14286" stroke-linecap="round" stroke-linejoin="round"/>
</svg>
