<svg width="15" height="15" viewBox="0 0 15 17" fill="none" xmlns="http://www.w3.org/2000/svg">
<path d="M11.2857 6.14286C11.2857 8.98857 6.14286 15.8571 6.14286 15.8571C6.14286 15.8571 1 8.98857 1 6.14286C1 4.77889 1.54184 3.47078 2.50631 2.50631C3.47078 1.54184 4.77889 1 6.14286 1C7.50683 1 8.81493 1.54184 9.77941 2.50631C10.7439 3.47078 11.2857 4.77889 11.2857 6.14286Z" stroke="#1E1E1E" stroke-width="1.14286" stroke-linecap="round" stroke-linejoin="round"/>
<path d="M6.14286 7.85715C7.08963 7.85715 7.85714 7.08963 7.85714 6.14286C7.85714 5.19609 7.08963 4.42857 6.14286 4.42857C5.19608 4.42857 4.42857 5.19609 4.42857 6.14286C4.42857 7.08963 5.19608 7.85715 6.14286 7.85715Z" stroke="#1E1E1E" stroke-width="1.14286" stroke-linecap="round" stroke-linejoin="round"/>
</svg>
